<svg width="640" height="560" viewBox="0 0 640 560" fill="none" xmlns="http://www.w3.org/2000/svg">
  <rect width="640" height="560" rx="48" fill="#FFF8EE"/>
  <circle cx="105" cy="108" r="52" fill="#FFE1BD"/>
  <circle cx="547" cy="446" r="68" fill="#E4F1FF"/>
  <rect x="64" y="78" width="512" height="404" rx="48" fill="#123A67"/>
  <rect x="100" y="116" width="440" height="328" rx="36" fill="#FFFDF8"/>
  <rect x="126" y="142" width="138" height="276" rx="28" fill="#F6D69C"/>
  <rect x="280" y="142" width="234" height="98" rx="28" fill="#F47B20"/>
  <rect x="280" y="256" width="234" height="162" rx="28" fill="#1E5A8B"/>
  <circle cx="195" cy="221" r="34" fill="#F8C46F"/>
  <circle cx="195" cy="302" r="42" fill="#7DBF7B"/>
  <circle cx="352" cy="191" r="34" fill="#FFC786"/>
  <circle cx="436" cy="191" r="30" fill="#FFB35D"/>
  <circle cx="352" cy="333" r="48" fill="#FF8B3D"/>
  <circle cx="443" cy="337" r="44" fill="#73B7A5"/>
  <circle cx="338" cy="387" r="20" fill="#FFF5E8"/>
  <circle cx="486" cy="388" r="16" fill="#FFF5E8"/>
  <rect x="92" y="28" width="194" height="56" rx="28" fill="#FFFFFF"/>
  <text x="122" y="64" fill="#123A67" font-size="26" font-weight="700" font-family="'Trebuchet MS', 'Segoe UI', sans-serif">Pedido fácil</text>
</svg>

