<svg width="480" height="360" viewBox="0 0 480 360" fill="none" xmlns="http://www.w3.org/2000/svg">
  <rect width="480" height="360" rx="32" fill="#FFF8EF"/>
  <rect x="78" y="60" width="324" height="240" rx="36" fill="#123A67"/>
  <rect x="124" y="98" width="232" height="164" rx="28" fill="#FFFDF8"/>
  <path d="M164 208C164 168.235 196.235 136 236 136H244C283.765 136 316 168.235 316 208V216C316 225.941 307.941 234 298 234H182C172.059 234 164 225.941 164 216V208Z" fill="#FFD567"/>
  <path d="M164 216H316C316 232.569 302.569 246 286 246H194C177.431 246 164 232.569 164 216Z" fill="#FFF1C3"/>
  <circle cx="218" cy="188" r="10" fill="#8C2B2B"/>
  <circle cx="248" cy="176" r="8" fill="#8C2B2B"/>
  <circle cx="278" cy="190" r="10" fill="#8C2B2B"/>
</svg>

